# xmcd
#
# Track frame offsets:
#	150
#	15467
#	34565
#	46764
#	63167
#	78699
#	93280
#	114659
#	125143
#	137969
#
# Disc length: 2130 seconds
#
# Revision: 1
# Processed by: cddbd v1.4PL0 Copyright (c) Steve Scherf et al.
# Submitted via: audiograbber 1.81.03
#
DISCID=7f08500a
DTITLE=The`Bebop Cowboys - Debut
DYEAR=2002
DGENRE=
TTITLE0=Crazy Rhythm
TTITLE1=Rose of San Antone
TTITLE2=Is You Is or Is You Ain't My Baby
TTITLE3=Ram-Bunk-Shush
TTITLE4=That's What I Like About the South
TTITLE5=Sweet Temptation
TTITLE6=Lucky Old Sun
TTITLE7=remington Ride
TTITLE8=Deep Water
TTITLE9=Detroit City
EXTD=
EXTT0=
EXTT1=
EXTT2=
EXTT3=
EXTT4=
EXTT5=
EXTT6=
EXTT7=
EXTT8=
EXTT9=
PLAYORDER=
